<?xml version="1.0" encoding="UTF-8"?><svg id="uuid-0d0a7621-eb9b-4fbb-ae83-f72494c62b6a" xmlns="http://www.w3.org/2000/svg" viewBox="0 0 103.09 90.48"><g id="uuid-66bfcba8-b497-4ca6-905c-6fad2d344a1f"><path d="M95.22,66.83c-.83-.02-1.66-.05-2.49,0-2.34,.16-4.2-.7-5.77-2.43-1.94-2.13-4.35-3.55-7.14-4.26-5-1.28-9.55-.33-13.63,2.84-1.61,1.25-2.86,2.81-3.98,4.69-.2-.26-.33-.46-.5-.63-3.72-3.73-9.14-3.72-12.8,.07-.51,.53-.64,.25-.91-.17-5.46-8.77-17.62-9.88-24.56-2.26-1.27,1.39-2.84,2.16-4.76,2.15-1.1-.01-2.2-.01-3.3,.01-1.07,.02-1.57,.52-1.6,1.59-.02,.7-.01,1.39,0,2.09,.03,1.33,.29,1.65,1.62,1.98,2.1,.52,3.75,2.34,4.12,4.47,.17,.97,.35,1.96,.67,2.89,2.51,7.2,9.03,11.3,16.6,10.49,6.62-.71,12.29-6.17,13.3-12.76,.25-1.66,.14-3.31,.1-4.97-.05-2.08,.86-3.7,2.67-4.7,1.76-.97,3.58-.91,5.26,.21,1.77,1.19,2.56,2.93,2.32,5.05-.25,2.28-.06,4.5,.66,6.66,2.6,7.79,10.54,12.22,18.48,10.13,6.27-1.66,10.11-5.84,11.36-12.22,.55-2.81,1.88-4.72,4.76-5.37,.79-.18,1.16-.73,1.17-1.52,0-.78,0-1.55,0-2.33,0-1.1-.55-1.68-1.67-1.7Zm-60.34,20.67c-6.92,0-12.47-5.6-12.46-12.57,0-6.76,5.62-12.32,12.45-12.32,6.92,0,12.49,5.6,12.47,12.55-.02,6.73-5.68,12.35-12.46,12.34Zm40.84,0c-7.07-.16-12.59-5.83-12.38-12.81,.2-6.84,5.96-12.39,13.01-12.08,6.48,.28,12.13,5.75,11.89,12.95-.22,6.56-5.96,12.08-12.52,11.94Z" style="fill:#47759a;"/><path d="M93.33,53.65c1.27,3.59,1.67,7.38,2.33,11.1,.15,.82,.66,1.25,1.47,1.37,1.86,.27,4.98,.6,5.66-1.66,.52-1.73,.2-3.57,.17-5.33-.11-7.91-.51-14.28-2-19.41-1.05-3.6-3.52-9.49-6.32-11.52s-7.48-4.61-9.68-9.18C77.42,6.34,62.86,.96,48.75,.04c-6.83-.06-13.65-.2-20.34,.76-.4,.06-1.31,.3-1.43,.85-.09,.43,.26,.69,.55,.93,1.4,1.15,3.2,1.97,4.62,3.1,.38,.3,.76,.57,.66,1.12-.42,1.26-2.28,.99-3.36,1.24-4.93,.21-9.56,1.51-13.94,3.72-.78,.42-1.73,.89-1.63,1.33,.31,1.32,4.36,2.66,4.93,3.9,.73,.83,.58,1.47-.49,1.75-2.84,.64-20.67,4.35-18.07,8.11,2.23,1.57,3.34,3.87,4.04,6.4,3.2,12.05,2.85,20.22,4.95,29.2,.94,4,0,3.52,4.29,3.6,4.06,.55,2.46-6.43,3.04-9.27,1.93-6.87,6.43-15.23,14.65-15.91,9.57,.18,19.43,2.9,28.96,.72,21.79-6.25,27.17-4.83,33.13,12.07Z" style="fill:#1d1d1b;"/><circle cx="34.89" cy="74.51" r="5.19" style="fill:#1d1d1b;"/><circle cx="37.61" cy="71.68" r="1.74" style="fill:#fff;"/><circle cx="33.61" cy="76.17" r=".84" style="fill:#fff;"/><circle cx="75.79" cy="74.51" r="5.19" style="fill:#1d1d1b;"/><circle cx="78.52" cy="71.68" r="1.74" style="fill:#fff;"/><circle cx="74.52" cy="76.17" r=".84" style="fill:#fff;"/></g></svg>